<?xml version="1.0" encoding="UTF-8"?>
<svg version="1.1" viewBox="0 0 1320 1232" width="1280" height="1280" xmlns="http://www.w3.org/2000/svg">
<path transform="translate(122,74)" d="m0 0h1112l5 1v200l-1 271v388l1 118v115l-3 3-13 2-17 1h-784l-341 1-1-2v-1065l-2-4 1-9 3-9 4-4 2 1 1 1h6l-4-1v-2l7-3 12-2zm-18 8v1h5v-1zm-17 2-1 12 2-1v-11zm1 16-4 8 3-1 2-3z"/>
<path transform="translate(122,74)" d="m0 0h1112l5 1v200l-1 271v388l1 118v115l-3 3-13 2-17 1h-784l-341 1-1-2v-1065l-2-4 1-9 3-9 4-4 2 1 1 1h6l-4-1v-2l7-3 12-2zm-18 8v1h5v-1zm-17 2-1 12 2-1v-11zm1 16-4 8 3-1 2-3zm1065 16-1032 1-1 4v988l1 21 1 1 1077 1 1-4v-1011l-1-1z" fill="#5911E4"/>
<path transform="translate(715,331)" d="m0 0h197l2 1v419l-3 34-5 25-6 21-10 24-12 20-11 14-9 10-10 9-18 13-21 12-21 9-21 7-26 6-24 4-31 3h-61l-38-4-26-5-25-7-21-8-22-11-18-12-14-11-14-14-13-17-11-19-9-21-7-24-4-21-2-15-1-13v-31l5-1h180l1 1 3 34 4 16 6 12 9 10 12 7 14 4 9 1h16l16-3 10-4 10-7 6-7 7-14 4-17 1-8 1-421z" fill="#FEFEFE"/>
<path transform="translate(561,529)" d="m0 0 23 10 38 17 3 3-1 9-16 8-42 19-6 1v-13l8-4 40-16-3-2-34-13-10-4-1-1v-13z" fill="#FEFEFE"/>
<path transform="translate(434,529)" d="m0 0h2v14l-5 3-26 11-12 4h-3l3 3 29 12 12 5 2 2v13l-6-1-25-12-24-11-6-4-1-1v-8l5-4 27-13 20-9z" fill="#FEFEFE"/>
<path transform="translate(514,502)" d="m0 0h12l-3 10-17 44-13 34-12 30-5 2-7-1 1-6 13-34 30-78z" fill="#FEFEFE"/>
<path transform="translate(73,64)" d="m0 0 3 1-5 5-2-1z" fill="#260763"/>
</svg>
